<svg xmlns="http://www.w3.org/2000/svg" viewBox="0 0 63.72 83.36"><defs><style>.cls-1{fill:#fbaa26;}</style></defs><title>accessibility </title><g id="Layer_2" data-name="Layer 2"><g id="Layer_1-2" data-name="Layer 1"><path class="cls-1" d="M31,15.58a7.79,7.79,0,1,0-7.79-7.79A7.79,7.79,0,0,0,31,15.58ZM31,2.66a5.13,5.13,0,1,1-5.13,5.13A5.13,5.13,0,0,1,31,2.66Z"/><path class="cls-1" d="M62,17.53a4.47,4.47,0,0,0-3.29-1L31,18.51,5,16.54a4.56,4.56,0,0,0-5,4.05,4.54,4.54,0,0,0,4,5l16.54,2.3V45.46L10.77,77a4.66,4.66,0,0,0,.5,3.79,5.46,5.46,0,0,0,7,2.09A4.71,4.71,0,0,0,20.72,80L30,51.93h1.34l9.3,28a4.72,4.72,0,0,0,2.5,2.9,5.36,5.36,0,0,0,2.29.52,5.43,5.43,0,0,0,1.59-.24,5.35,5.35,0,0,0,3.09-2.37,4.71,4.71,0,0,0,.49-3.8L40.82,45.36V28.21L59.64,25.6a4.55,4.55,0,0,0,4-5A4.48,4.48,0,0,0,62,17.53Zm-1.39,4.73a1.93,1.93,0,0,1-1.32.69l-20,2.78a1.34,1.34,0,0,0-1.14,1.32V45.56a1.34,1.34,0,0,0,.06.4l9.87,31.77a2.05,2.05,0,0,1-.23,1.66,2.81,2.81,0,0,1-3.52,1,2.1,2.1,0,0,1-1.12-1.3l-9.62-29a1.33,1.33,0,0,0-1.26-.92H29.08a1.33,1.33,0,0,0-1.27.92l-9.63,29a2.09,2.09,0,0,1-1.11,1.26,2.81,2.81,0,0,1-3.52-1,2.12,2.12,0,0,1-.24-1.65l9.86-31.69a1.32,1.32,0,0,0,.06-.39V26.73a1.33,1.33,0,0,0-1.15-1.32L4.35,23a1.92,1.92,0,0,1-1.27-.69,1.94,1.94,0,0,1-.41-1.39,1.91,1.91,0,0,1,2.12-1.68l26.07,2h.19l27.92-2a1.9,1.9,0,0,1,1.39.41,1.89,1.89,0,0,1,.28,2.66Z"/></g></g></svg>