<svg xmlns="http://www.w3.org/2000/svg" viewBox="0 0 101.66 101.66"><defs><style>.cls-1{fill:#201747;}</style></defs><title>challenge definition 1 navy</title><g id="Layer_2" data-name="Layer 2"><g id="Layer_1-2" data-name="Layer 1"><polygon class="cls-1" points="9.1 9.32 26.9 9.32 26.9 0.22 0 0.22 0 27.12 9.1 27.12 9.1 9.32"/><polygon class="cls-1" points="92.56 74.54 92.56 92.34 74.76 92.34 74.76 101.43 101.66 101.43 101.66 74.54 92.56 74.54"/><polygon class="cls-1" points="9.32 74.76 0.22 74.76 0.22 101.66 27.12 101.66 27.12 92.56 9.32 92.56 9.32 74.76"/><polygon class="cls-1" points="92.34 26.89 101.44 26.89 101.44 0 74.54 0 74.54 9.1 92.34 9.1 92.34 26.89"/><path class="cls-1" d="M80.77,85.28a4.18,4.18,0,0,0,3-1.23l.76-.76a4.21,4.21,0,0,0,0-6L77,69.84V21.48a1,1,0,0,0-1-1H20.36a1,1,0,0,0-1,1v13.9a1,1,0,0,0,2.06,0V22.51H47.28V34.35H34.34a1,1,0,0,0-1,1v13.9a1,1,0,0,0,2.06,0V36.41H48.31a1,1,0,0,0,1-1V22.51H61.19V37.94a16.89,16.89,0,0,0-22.48,16,16.79,16.79,0,0,0,2.21,8.33H34.34a1,1,0,0,0-1,1V76.05H21.39V49.46a1,1,0,1,0-2.06,0V77.08a1,1,0,0,0,1,1h14a1,1,0,0,0,1-1V64.3H42.3A16.86,16.86,0,0,0,65,68l2.52,2.51a4.2,4.2,0,0,0,1,4.31l1.25,1.25H48.31a1,1,0,0,0,0,2.06H71.86l5.94,5.94A4.18,4.18,0,0,0,80.77,85.28ZM72.11,50.1h2.83V67.82a4.23,4.23,0,0,0-4-.73l-2.34-2.33a16.85,16.85,0,0,0,4-10.85A17.12,17.12,0,0,0,72.11,50.1ZM63.25,22.51H74.94V48.05H71.48a17,17,0,0,0-8.23-9.22ZM45,64.3a14.8,14.8,0,0,1-4.25-10.39A14.88,14.88,0,0,1,55.63,39.05a14.69,14.69,0,0,1,5.56,1.09,15.23,15.23,0,0,1,2.06,1,15,15,0,0,1,6,6.87A14.26,14.26,0,0,1,70,50.1a14.54,14.54,0,0,1,.52,3.81A14.86,14.86,0,0,1,45,64.3ZM72.71,76.05,70,73.34a2.13,2.13,0,0,1-.34-2.57,1,1,0,0,0-.17-1.24l-2.77-2.77.49-.48L70,69.05a1,1,0,0,0,1.24.17,2.15,2.15,0,0,1,2.57.33l1.14,1.15L77,72.76l6,6a2.14,2.14,0,0,1,0,3l-.75.76a2.15,2.15,0,0,1-3,0l-4.47-4.48Z"/></g></g></svg>