<svg xmlns="http://www.w3.org/2000/svg" viewBox="0 0 101.66 101.66"><defs><style>.cls-1{fill:#201747;}</style></defs><title>Hackathon navy</title><g id="Layer_2" data-name="Layer 2"><g id="Layer_1-2" data-name="Layer 1"><polygon class="cls-1" points="9.1 27.12 0 27.12 0 0.22 26.9 0.22 26.9 9.32 9.1 9.32 9.1 27.12"/><polygon class="cls-1" points="101.66 101.43 74.76 101.43 74.76 92.34 92.56 92.34 92.56 74.54 101.66 74.54 101.66 101.43"/><polygon class="cls-1" points="27.12 101.66 0.22 101.66 0.22 74.76 9.32 74.76 9.32 92.56 27.12 92.56 27.12 101.66"/><polygon class="cls-1" points="101.44 26.89 92.34 26.89 92.34 9.1 74.54 9.1 74.54 0 101.44 0 101.44 26.89"/><path class="cls-1" d="M60.32,66.72V63.25a8.58,8.58,0,0,0-.12-1.35h5.09a6.33,6.33,0,0,0,11-3.17A12.4,12.4,0,0,0,71,37.42a18.75,18.75,0,0,0-36.13-5.86A6.92,6.92,0,0,0,32,31a7,7,0,0,0-6.38,10A10.64,10.64,0,0,0,22.2,59.9a6.33,6.33,0,0,0,10.74,2H38a7.53,7.53,0,0,0-.12,1.35v3.47a2,2,0,0,0,2,2H58.27A2.05,2.05,0,0,0,60.32,66.72Zm9.76-4.8a4.24,4.24,0,0,1-.88-.1,4.14,4.14,0,0,1-2.76-2.09,4.1,4.1,0,0,1-.52-2,4.15,4.15,0,0,1,8.3-.1s0,.07,0,.1a4.21,4.21,0,0,1-4.15,4.16Zm-41.92,0a4.07,4.07,0,0,1-.61-.06,4.14,4.14,0,0,1-3.47-3.33,3.94,3.94,0,0,1-.08-.77,4.16,4.16,0,0,1,8.31,0,4.21,4.21,0,0,1-.51,2,4.14,4.14,0,0,1-3.44,2.17Zm6-2.19a6.4,6.4,0,0,0,.32-2A6.33,6.33,0,0,0,21.92,56.7,8.47,8.47,0,0,1,26.2,43.07a2.15,2.15,0,0,0,1.4-1.18,2.19,2.19,0,0,0,0-1.84A4.86,4.86,0,0,1,32,33.13a4.73,4.73,0,0,1,2,.42,2.23,2.23,0,0,0,.88.18,2.1,2.1,0,0,0,.82-.16,2.17,2.17,0,0,0,1.2-1.2,16.58,16.58,0,0,1,31.94,5.17,2.17,2.17,0,0,0,1.66,2,10.25,10.25,0,0,1,5.64,16.31,6.33,6.33,0,1,0-12,3.89H59.51A8.23,8.23,0,0,0,52.11,55h-6a8.21,8.21,0,0,0-7.4,4.69Zm24,6.86h-18V63.25a5.94,5.94,0,0,1,.16-1.35,5.8,5.8,0,0,1,1-2.17,6,6,0,0,1,4.89-2.52h6A6,6,0,0,1,57,59.73a6.13,6.13,0,0,1,1,2.17,5.94,5.94,0,0,1,.15,1.35Z"/><path class="cls-1" d="M49.12,52.43a6.33,6.33,0,1,0-6.33-6.33A6.33,6.33,0,0,0,49.12,52.43Zm0-10.49A4.16,4.16,0,1,1,45,46.1,4.16,4.16,0,0,1,49.12,41.94Z"/><path class="cls-1" d="M73.07,66.7h-6a8.23,8.23,0,0,0-8.21,8.21v3.47a2.05,2.05,0,0,0,2,2.05h18.3a2.05,2.05,0,0,0,2-2.05V74.91A8.24,8.24,0,0,0,73.07,66.7Zm6,11.55h-18V74.91a6,6,0,0,1,6-6h6a6,6,0,0,1,6,6Z"/><path class="cls-1" d="M31.15,66.7h-6A8.24,8.24,0,0,0,17,74.91v3.47A2.06,2.06,0,0,0,19,80.43H37.31a2.05,2.05,0,0,0,2-2.05V74.91A8.24,8.24,0,0,0,31.15,66.7Zm6,11.55h-18V74.91a6,6,0,0,1,6-6h6a6,6,0,0,1,6,6Z"/></g></g></svg>