<svg xmlns="http://www.w3.org/2000/svg" viewBox="0 0 95.35 77.28"><defs><style>.cls-1{fill:#fbaa26;}</style></defs><title>impact</title><g id="Layer_2" data-name="Layer 2"><g id="Layer_1-2" data-name="Layer 1"><path class="cls-1" d="M94,0H13.42a1.34,1.34,0,0,0-1.33,1.33V7.39a1.33,1.33,0,0,0,1.33,1.33h9.24V15A1.33,1.33,0,0,0,24,16.28h1L12,55.21a9.59,9.59,0,0,0-2.64-.39A9.36,9.36,0,0,0,5.47,72.69a9.25,9.25,0,0,0,3.88.85A9.35,9.35,0,0,0,14.4,56.31a.91.91,0,0,0,.11-.22L27.76,16.28h1.31A1.32,1.32,0,0,0,30.4,15V8.72H40.68V15A1.33,1.33,0,0,0,42,16.28h1.21V58.56s0,.07,0,.11A9.35,9.35,0,1,0,53.57,70.41a9.34,9.34,0,0,0,18,0A9.35,9.35,0,1,0,81.91,58.67a.43.43,0,0,0,0-.11V16.28h1.21A1.32,1.32,0,0,0,84.47,15V8.72H94a1.32,1.32,0,0,0,1.33-1.33V1.33A1.33,1.33,0,0,0,94,0ZM15.45,67a6.72,6.72,0,0,1-6.1,3.92A6.7,6.7,0,1,1,15.45,67ZM27.74,13.62H25.32V9.83h2.42Zm15.61,0V9.83h2.41v3.79H43.35Zm1.21,61a6.69,6.69,0,1,1,6.69-6.69A6.7,6.7,0,0,1,44.56,74.61Zm9-9.18a9.35,9.35,0,0,0-7.7-6.76s0-.07,0-.11V16.28H47.1A1.33,1.33,0,0,0,48.43,15V8.72H58.71V15A1.32,1.32,0,0,0,60,16.28h1.21V58.56a.43.43,0,0,0,0,.11A9.32,9.32,0,0,0,53.57,65.43Zm7.8-51.81V9.83h2.42v3.79H61.37Zm1.21,61a6.69,6.69,0,1,1,6.69-6.69A6.7,6.7,0,0,1,62.58,74.61Zm24.71-6.69a6.69,6.69,0,1,1-6.69-6.69A6.7,6.7,0,0,1,87.29,67.92Zm-5.48-54.3H79.39V9.83h2.42Zm-3.75,2.66h1.21V58.56s0,.07,0,.11a9.35,9.35,0,0,0-7.7,6.76,9.35,9.35,0,0,0-7.7-6.76s0-.07,0-.11V16.28h1.21A1.33,1.33,0,0,0,66.45,15V8.72H76.73V15A1.33,1.33,0,0,0,78.06,16.28ZM92.69,6.06H14.75V2.66H92.69Z"/></g></g></svg>