<svg xmlns="http://www.w3.org/2000/svg" viewBox="0 0 79.87 79.87"><defs><style>.cls-1{fill:#fbaa26;}</style></defs><title>relevance</title><g id="Layer_2" data-name="Layer 2"><g id="Layer_1-2" data-name="Layer 1"><path class="cls-1" d="M39.93,0A39.94,39.94,0,1,0,79.87,39.93,40,40,0,0,0,39.93,0Zm0,77.2A37.27,37.27,0,1,1,77.2,39.93,37.31,37.31,0,0,1,39.93,77.2Z"/><path class="cls-1" d="M39.93,15.43a24.51,24.51,0,1,0,24.51,24.5A24.53,24.53,0,0,0,39.93,15.43Zm0,46.34A21.84,21.84,0,1,1,61.77,39.93,21.86,21.86,0,0,1,39.93,61.77Z"/><path class="cls-1" d="M39.93,30.86A9.08,9.08,0,1,0,49,39.93,9.08,9.08,0,0,0,39.93,30.86Zm0,15.48a6.41,6.41,0,1,1,6.41-6.41A6.42,6.42,0,0,1,39.93,46.34Z"/></g></g></svg>