<svg xmlns="http://www.w3.org/2000/svg" viewBox="0 0 101.66 101.66"><defs><style>.cls-1{fill:#201747;}</style></defs><title>solution proposals navy</title><g id="Layer_2" data-name="Layer 2"><g id="Layer_1-2" data-name="Layer 1"><path class="cls-1" d="M61.35,67.42h-21a1.09,1.09,0,0,0-1.09,1.09v5.8a1.09,1.09,0,0,0,1.09,1.09h21a1.09,1.09,0,0,0,1.09-1.09v-5.8A1.09,1.09,0,0,0,61.35,67.42Zm-1.09,5.8H41.4V69.6H60.26Z"/><path class="cls-1" d="M58.5,76.83H43.15a1.08,1.08,0,0,0-1.08,1.09v5.8a1.08,1.08,0,0,0,1.08,1.09H58.5a1.09,1.09,0,0,0,1.09-1.09v-5.8A1.09,1.09,0,0,0,58.5,76.83Zm-1.08,5.8H44.24V79H57.42Z"/><path class="cls-1" d="M62.88,34.81l-2.58-.29c-.09-.24-.2-.5-.29-.69a.36.36,0,0,0,0-.09l1.6-2a1.07,1.07,0,0,0-.08-1.44l-3-3a1.1,1.1,0,0,0-1.45-.08l-2,1.63-.77-.32L54,26a1.08,1.08,0,0,0-1.08-1h-4.2a1.09,1.09,0,0,0-1.08,1l-.29,2.59c-.24.09-.5.19-.69.28l-.09,0-2-1.6a1.1,1.1,0,0,0-1.45.08l-3,3A1.1,1.1,0,0,0,40,31.78l1.63,2c-.1.23-.21.5-.31.77l-2.57.29a1.1,1.1,0,0,0-1,1.08v4.2a1.09,1.09,0,0,0,1,1.08l2.58.29c.09.24.19.5.28.7a.36.36,0,0,1,0,.09l-1.6,2a1.08,1.08,0,0,0,.09,1.44l3,3a1.09,1.09,0,0,0,1.45.08l2-1.63.77.32.3,2.57a1.08,1.08,0,0,0,1.08,1H53a1.08,1.08,0,0,0,1.08-1l.3-2.59.69-.28.09,0,2,1.6a1.09,1.09,0,0,0,1.45-.08l3-3a1.07,1.07,0,0,0,.08-1.44L60,42.23c.1-.23.21-.5.31-.77l2.57-.29a1.09,1.09,0,0,0,1-1.08v-4.2A1.09,1.09,0,0,0,62.88,34.81Zm-1.21,4.31-2.28.26a1.08,1.08,0,0,0-.93.78,15.84,15.84,0,0,1-.71,1.77,1.09,1.09,0,0,0,.13,1.14l1.44,1.8-1.59,1.59L55.92,45a1.09,1.09,0,0,0-1.21-.1,6.36,6.36,0,0,1-.58.3c-.4.18-1.15.44-1.15.44a1.1,1.1,0,0,0-.73.91L52,48.87H49.74l-.26-2.29a1.08,1.08,0,0,0-.79-.92,15.41,15.41,0,0,1-1.77-.72,1.08,1.08,0,0,0-1.13.14L44,46.52l-1.59-1.6,1.43-1.8a1.07,1.07,0,0,0,.1-1.21,6.54,6.54,0,0,1-.3-.59c-.18-.39-.44-1.14-.44-1.15a1.1,1.1,0,0,0-.9-.72L40,39.19V36.94l2.28-.26a1.09,1.09,0,0,0,.93-.79,17.56,17.56,0,0,1,.71-1.77A1.12,1.12,0,0,0,43.78,33l-1.44-1.8,1.59-1.59L45.73,31a1.07,1.07,0,0,0,1.21.1,6.54,6.54,0,0,1,.59-.3c.39-.18,1.14-.44,1.15-.44a1.1,1.1,0,0,0,.73-.91l.26-2.29h2.25l.26,2.29a1.08,1.08,0,0,0,.78.92,15.74,15.74,0,0,1,1.77.72A1.09,1.09,0,0,0,55.87,31l1.8-1.43,1.6,1.59-1.44,1.8a1.09,1.09,0,0,0-.09,1.21c.1.19.2.38.3.59.18.39.43,1.14.44,1.15a1.07,1.07,0,0,0,.9.72l2.29.26Z"/><path class="cls-1" d="M52.88,32.49a5.88,5.88,0,1,0-2,11.39,5.88,5.88,0,0,0,2-11.39ZM54.3,39.3a3.67,3.67,0,0,1-1.93,2.07,3.7,3.7,0,1,1-3.08-6.73,3.6,3.6,0,0,1,1.54-.34,3.86,3.86,0,0,1,1.29.23A3.7,3.7,0,0,1,54.3,39.3Z"/><path class="cls-1" d="M66.05,21.39a22.09,22.09,0,0,0-16.8-5.94A22.3,22.3,0,0,0,36.19,54.54,7.83,7.83,0,0,1,39,60.42v4.35A1.08,1.08,0,0,0,40,65.85H61.62a1.08,1.08,0,0,0,1.09-1.08V60.42a7.43,7.43,0,0,1,2.56-5.71,22.31,22.31,0,0,0,.78-33.32ZM63.86,53.05a9.64,9.64,0,0,0-3.33,7.37v3.26H41.12V60.42a10,10,0,0,0-3.5-7.52,20.14,20.14,0,1,1,26.24.15Z"/><polygon class="cls-1" points="9.1 9.32 26.9 9.32 26.9 0.22 0 0.22 0 27.12 9.1 27.12 9.1 9.32"/><polygon class="cls-1" points="92.56 74.54 92.56 92.34 74.76 92.34 74.76 101.43 101.66 101.43 101.66 74.54 92.56 74.54"/><polygon class="cls-1" points="9.32 74.76 0.22 74.76 0.22 101.66 27.12 101.66 27.12 92.56 9.32 92.56 9.32 74.76"/><polygon class="cls-1" points="92.34 26.89 101.44 26.89 101.44 0 74.54 0 74.54 9.1 92.34 9.1 92.34 26.89"/></g></g></svg>