<svg xmlns="http://www.w3.org/2000/svg" viewBox="0 0 101.66 101.66"><defs><style>.cls-1{fill:#201747;}</style></defs><title>solution showcase navy</title><g id="Layer_2" data-name="Layer 2"><g id="Layer_1-2" data-name="Layer 1"><polygon class="cls-1" points="9.1 9.32 26.9 9.32 26.9 0.22 0 0.22 0 27.12 9.1 27.12 9.1 9.32"/><polygon class="cls-1" points="92.56 74.54 92.56 92.34 74.76 92.34 74.76 101.43 101.66 101.43 101.66 74.54 92.56 74.54"/><polygon class="cls-1" points="9.32 74.76 0.22 74.76 0.22 101.66 27.12 101.66 27.12 92.56 9.32 92.56 9.32 74.76"/><polygon class="cls-1" points="92.34 26.89 101.44 26.89 101.44 0 74.54 0 74.54 9.1 92.34 9.1 92.34 26.89"/><path class="cls-1" d="M88.37,57.48V56.7a1.07,1.07,0,0,0-.88-1.05V44.38a4.06,4.06,0,0,0-4-4.05H73.92a25.54,25.54,0,0,0-9.72-11V20.65a4.06,4.06,0,0,0-4.05-4H41.51a4.06,4.06,0,0,0-4,4v8.63a25.54,25.54,0,0,0-9.72,11H18.22a4.06,4.06,0,0,0-4,4.05V55.65a1.08,1.08,0,0,0-.89,1.05v.78a3.86,3.86,0,0,0,3.85,3.85H27.74a25.59,25.59,0,0,0,9.72,11v7a1.07,1.07,0,0,0-.88,1.05v.78a3.84,3.84,0,0,0,3.84,3.84H61.24a3.84,3.84,0,0,0,3.84-3.84v-.78a1.07,1.07,0,0,0-.88-1.05v-7a25.59,25.59,0,0,0,9.72-11H84.53A3.85,3.85,0,0,0,88.37,57.48Zm-13.58-15h8.65a1.87,1.87,0,0,1,1.87,1.87V55.61H80.07v-1.3a4.64,4.64,0,0,0-3.52-4.5A3.81,3.81,0,0,0,75,43.14a3.45,3.45,0,0,0-2.24.15,3.8,3.8,0,0,0-1.07,6.52,4.65,4.65,0,0,0-3.52,4.5v1.3H62.93V44.38a1.87,1.87,0,0,1,1.87-1.87h10Zm-2,9.32h2.6a2.36,2.36,0,0,1,.75.13,2.47,2.47,0,0,1,1.73,2.35v1.3H70.35v-1.3A2.48,2.48,0,0,1,72.82,51.83Zm-.36-5a1.65,1.65,0,0,1,.91-1.47,1.61,1.61,0,0,1,.75-.19,1.66,1.66,0,0,1,0,3.32l-.21,0A1.66,1.66,0,0,1,72.46,46.86Zm-8.26-15,.07.05H64.2ZM39.64,30.52V20.65a1.87,1.87,0,0,1,1.87-1.87H60.15A1.87,1.87,0,0,1,62,20.65V31.89H56.78V30.58a4.71,4.71,0,0,0-3.52-4.5,4.89,4.89,0,0,0,.46-.45,3.84,3.84,0,1,0-5.78,0,3.92,3.92,0,0,0,.46.45,4.68,4.68,0,0,0-3.52,4.5v1.31H39.64Zm9.89-2.42h2.6a2.48,2.48,0,0,1,2.47,2.48v1.31H47.05V30.58A2.49,2.49,0,0,1,49.53,28.1Zm-.36-5a1.66,1.66,0,1,1,1.66,1.66A1.66,1.66,0,0,1,49.17,23.13ZM40.93,34.06h22a1.68,1.68,0,0,1-1.64,1.36H40.42a1.67,1.67,0,0,1-1.64-1.36Zm-3.47-2.17v0h-.07ZM16.34,44.38a1.88,1.88,0,0,1,1.88-1.87H36.86a1.87,1.87,0,0,1,1.87,1.87V55.61H33.49v-1.3A4.65,4.65,0,0,0,30,49.81a3.81,3.81,0,0,0-1.06-6.52A3.66,3.66,0,0,0,27.54,43a3.74,3.74,0,0,0-.89.12,3.81,3.81,0,0,0-1.54,6.67,4.64,4.64,0,0,0-3.52,4.5v1.3H16.34Zm9.9,7.45h2.6a2.48,2.48,0,0,1,2.47,2.48v1.3H23.76v-1.3A2.47,2.47,0,0,1,25.49,52,2.32,2.32,0,0,1,26.24,51.83Zm-.36-5a1.66,1.66,0,0,1,1.66-1.66,1.54,1.54,0,0,1,.74.19,1.64,1.64,0,0,1-.53,3.11l-.21,0A1.66,1.66,0,0,1,25.88,46.86Zm1,12.29H17.13a1.67,1.67,0,0,1-1.64-1.36h24.1A1.68,1.68,0,0,1,38,59.15H26.87ZM61.24,82.88H40.42a1.67,1.67,0,0,1-1.64-1.36h24.1A1.68,1.68,0,0,1,61.24,82.88ZM56.1,75.64A4.73,4.73,0,0,0,54,73.8a4.36,4.36,0,0,0-.77-.26,3.84,3.84,0,1,0-4.86,0,4.36,4.36,0,0,0-.77.26A4.7,4.7,0,0,0,44.88,78v1.31H39.64V68.11a1.88,1.88,0,0,1,1.87-1.88H60.15A1.88,1.88,0,0,1,62,68.11V79.34H56.78V78A4.68,4.68,0,0,0,56.1,75.64Zm-6.57-.08h2.6a2.4,2.4,0,0,1,1.46.49,2.46,2.46,0,0,1,1,2v1.31H47.05V78a2.47,2.47,0,0,1,1-2A2.4,2.4,0,0,1,49.53,75.56Zm-.36-5a1.66,1.66,0,1,1,1.66,1.66A1.66,1.66,0,0,1,49.17,70.59Zm15-.82V68.11a4.06,4.06,0,0,0-4.05-4H41.51a4.06,4.06,0,0,0-4,4v1.65a23.2,23.2,0,0,1-7.3-8.43H38a3.85,3.85,0,0,0,3.84-3.85V56.7a1.07,1.07,0,0,0-.88-1.05V44.38a4.06,4.06,0,0,0-4-4.05h-6.7a23.21,23.21,0,0,1,6.6-7.92,1,1,0,0,0-.18.56v.78a3.85,3.85,0,0,0,3.84,3.85H61.24a3.85,3.85,0,0,0,3.84-3.85V33a1.06,1.06,0,0,0-.18-.56,23.21,23.21,0,0,1,6.6,7.92H64.8a4.06,4.06,0,0,0-4,4.05V55.65a1.07,1.07,0,0,0-.88,1.05v.78a3.85,3.85,0,0,0,3.84,3.85H71.5A23.4,23.4,0,0,1,64.2,69.77Zm8.27-10.62H63.71a1.68,1.68,0,0,1-1.64-1.36h24.1a1.68,1.68,0,0,1-1.64,1.36H72.47Z"/></g></g></svg>